<?xml version="1.0" encoding="UTF-8"?>
<!-- Generator: Adobe Illustrator 15.0.2, SVG Export Plug-In . SVG Version: 6.00 Build 0)  -->
<!DOCTYPE svg PUBLIC "-//W3C//DTD SVG 1.1//EN" "http://www.w3.org/Graphics/SVG/1.1/DTD/svg11.dtd">
<svg xmlns="http://www.w3.org/2000/svg" xmlns:xlink="http://www.w3.org/1999/xlink" version="1.1" id="Layer_1" x="0px" y="0px" width="512px" height="583.393px" viewBox="0 0 512 583.393" enable-background="new 0 0 512 583.393" xml:space="preserve">
<g>
	<path d="M36.462,583.393h439.076c20.118,0,36.462-16.344,36.462-36.462V36.462C512,16.335,495.656,0,475.538,0H36.462   C16.335,0,0,16.335,0,36.462v510.469C0,567.049,16.335,583.393,36.462,583.393z M237.003,109.386h147.38   c10.077,0,18.231,8.173,18.231,18.231c0,10.06-8.154,18.231-18.231,18.231h-147.38c-10.059,0-18.23-8.172-18.23-18.231   C218.772,117.559,226.944,109.386,237.003,109.386z M127.617,218.772h256.766c10.077,0,18.231,8.172,18.231,18.23   c0,10.06-8.154,18.231-18.231,18.231H127.617c-10.059,0-18.231-8.172-18.231-18.231   C109.386,226.944,117.559,218.772,127.617,218.772z M127.617,328.158h256.766c10.077,0,18.231,8.172,18.231,18.231   c0,10.059-8.154,18.231-18.231,18.231H127.617c-10.059,0-18.231-8.173-18.231-18.231   C109.386,336.33,117.559,328.158,127.617,328.158z M127.617,437.545h256.766c10.077,0,18.231,8.172,18.231,18.23   c0,10.06-8.154,18.231-18.231,18.231H127.617c-10.059,0-18.231-8.172-18.231-18.231   C109.386,445.717,117.559,437.545,127.617,437.545z" fill="#FFFFFF"/>
</g>
</svg>
