<?xml version="1.0" encoding="UTF-8"?>
<!-- Generator: Adobe Illustrator 15.0.2, SVG Export Plug-In . SVG Version: 6.00 Build 0)  -->
<!DOCTYPE svg PUBLIC "-//W3C//DTD SVG 1.1//EN" "http://www.w3.org/Graphics/SVG/1.1/DTD/svg11.dtd">
<svg xmlns="http://www.w3.org/2000/svg" xmlns:xlink="http://www.w3.org/1999/xlink" version="1.1" id="Layer_1" x="0px" y="0px" width="512.002px" height="510.551px" viewBox="0 0 512.002 510.551" enable-background="new 0 0 512.002 510.551" xml:space="preserve">
<path d="M19.297,510.551h311.329l-34.605-34.584H71.186l69.179-34.585l-69.179-69.189L36.59,450.023  C36.59,450.023-32.589,510.551,19.297,510.551z M192.252,424.079L88.478,320.305v34.585l69.185,69.189H192.252z M110.101,315.979  l86.477,86.487c17.298,17.281,64.859-30.274,64.859-30.274L140.364,251.12C88.478,303.008,110.101,315.979,110.101,315.979z   M278.739,354.89L512.002,89.373C485.141,54.261,452.327,23.965,415.028,0L157.662,233.828L278.739,354.89z" fill="#FFFFFF"/>
</svg>
