<?xml version="1.0" encoding="UTF-8"?>
<!-- Generator: Adobe Illustrator 15.0.2, SVG Export Plug-In . SVG Version: 6.00 Build 0)  -->
<!DOCTYPE svg PUBLIC "-//W3C//DTD SVG 1.1//EN" "http://www.w3.org/Graphics/SVG/1.1/DTD/svg11.dtd">
<svg xmlns="http://www.w3.org/2000/svg" xmlns:xlink="http://www.w3.org/1999/xlink" version="1.1" id="Layer_1" x="0px" y="0px" width="512px" height="512px" viewBox="0 0 512 512" enable-background="new 0 0 512 512" xml:space="preserve">
<g>
	<path d="M384,0H128H32C14.336,0,0,14.336,0,32v448c0,17.656,14.336,32,32,32h448c17.656,0,32-14.344,32-32V96L416,0H384z M352,160   V32h32v128c0,17.664-14.344,32-32,32H160c-17.664,0-32-14.336-32-32V32h128v128H352z M96,288c0-17.656,14.336-32,32-32h256   c17.656,0,32,14.344,32,32v192H96V288z" fill="#000000"/>
</g>
</svg>
